{
  "source": "C:\\Users\\Peter\\Desktop\\stuff\\MIUN\\quantitative_research\\video_compression\\videos\\BVI-HD\\BVI-HD_CDVL_videos\\ORIG\\FishAndRock_1920x1080_30fps.mp4",
  "output": "C:\\Users\\Peter\\Desktop\\stuff\\MIUN\\quantitative_research\\video_compression\\compressed_videos\\BVI-HD\\vp9\\1\\FishAndRock_1920x1080_30fps_vp9.webm",
  "codec": "vp9",
  "ok": "Input #0, mov,mp4,m4a,3gp,3g2,mj2, from 'C:\\Users\\Peter\\Desktop\\stuff\\MIUN\\quantitative_research\\video_compression\\videos\\BVI-HD\\BVI-HD_CDVL_videos\\ORIG\\FishAndRock_1920x1080_30fps.mp4':\n  Metadata:\n    major_brand     : isom\n    minor_version   : 512\n    compatible_brands: isomiso2avc1mp41\n    encoder         : Lavf54.28.101\n  Duration: 00:00:05.00, start: 0.000000, bitrate: 251564 kb/s\n  Stream #0:0[0x1](und): Video: h264 (High 4:4:4 Predictive) (avc1 / 0x31637661), yuv420p(progressive), 1920x1080, 251561 kb/s, 30 fps, 30 tbr, 30 tbn (default)\n    Metadata:\n      handler_name    : VideoHandler\n      vendor_id       : [0][0][0][0]\n[out#0/webm @ 000001fe87a99240] Codec AVOption b:a (set bitrate (in bits/s)) has not been used for any stream. The most likely reason is either wrong type (e.g. a video option with no video streams) or that it is a private option of some decoder which was not actually used for any stream.\nStream mapping:\n  Stream #0:0 -> #0:0 (h264 (native) -> vp9 (libvpx-vp9))\nPress [q] to stop, [?] for help\n[libvpx-vp9 @ 000001fe885304c0] v1.15.2-100-g40561f514\nOutput #0, webm, to 'C:\\Users\\Peter\\Desktop\\stuff\\MIUN\\quantitative_research\\video_compression\\compressed_videos\\BVI-HD\\vp9\\1\\FishAndRock_1920x1080_30fps_vp9.webm':\n  Metadata:\n    major_brand     : isom\n    minor_version   : 512\n    compatible_brands: isomiso2avc1mp41\n    encoder         : Lavf62.3.100\n  Stream #0:0(und): Video: vp9, yuv420p(tv, progressive), 1920x1080, q=2-31, 1000 kb/s, 30 fps, 1k tbn (default)\n    Metadata:\n      encoder         : Lavc62.11.100 libvpx-vp9\n      handler_name    : VideoHandler\n      vendor_id       : [0][0][0][0]\n    Side data:\n      cpb: bitrate max/min/avg: 0/0/0 buffer size: 1000000 vbv_delay: N/A\nframe=    0 fps=0.0 q=0.0 size=       0KiB time=N/A bitrate=N/A speed=N/A elapsed=0:00:00.53    \nframe=    7 fps=6.1 q=56.0 size=       1KiB time=00:00:00.23 bitrate=  21.7kbits/s speed=0.203x elapsed=0:00:01.14    \nframe=   13 fps=7.8 q=51.0 size=       1KiB time=00:00:00.43 bitrate=  11.7kbits/s speed=0.26x elapsed=0:00:01.66    \nframe=   19 fps=8.7 q=51.0 size=       1KiB time=00:00:00.63 bitrate=   8.0kbits/s speed=0.291x elapsed=0:00:02.17    \nframe=   25 fps=9.3 q=49.0 size=       1KiB time=00:00:00.83 bitrate=   6.1kbits/s speed=0.309x elapsed=0:00:02.69    \nframe=   30 fps=9.2 q=48.0 size=       1KiB time=00:00:01.00 bitrate=   5.1kbits/s speed=0.308x elapsed=0:00:03.24    \nframe=   37 fps=9.9 q=47.0 size=       1KiB time=00:00:01.23 bitrate=   4.1kbits/s speed=0.328x elapsed=0:00:03.75    \nframe=   42 fps=9.8 q=44.0 size=       1KiB time=00:00:01.40 bitrate=   3.6kbits/s speed=0.326x elapsed=0:00:04.29    \nframe=   48 fps= 10 q=44.0 size=       1KiB time=00:00:01.60 bitrate=   3.2kbits/s speed=0.332x elapsed=0:00:04.81    \nframe=   53 fps=9.9 q=42.0 size=       1KiB time=00:00:01.76 bitrate=   2.9kbits/s speed=0.331x elapsed=0:00:05.33    \nframe=   59 fps= 10 q=44.0 size=       1KiB time=00:00:01.96 bitrate=   2.6kbits/s speed=0.336x elapsed=0:00:05.85    \nframe=   64 fps= 10 q=44.0 size=       1KiB time=00:00:02.13 bitrate=   2.4kbits/s speed=0.334x elapsed=0:00:06.38    \nframe=   69 fps= 10 q=45.0 size=       1KiB time=00:00:02.30 bitrate=   2.2kbits/s speed=0.333x elapsed=0:00:06.90    \nframe=   73 fps=9.8 q=39.0 size=       1KiB time=00:00:02.43 bitrate=   2.1kbits/s speed=0.327x elapsed=0:00:07.44    \nframe=   77 fps=9.6 q=43.0 size=       1KiB time=00:00:02.56 bitrate=   2.0kbits/s speed=0.321x elapsed=0:00:08.00    \nframe=   80 fps=9.3 q=44.0 size=       1KiB time=00:00:02.66 bitrate=   1.9kbits/s speed=0.309x elapsed=0:00:08.63    \nframe=   83 fps=9.0 q=42.0 size=       1KiB time=00:00:02.73 bitrate=   1.9kbits/s speed=0.297x elapsed=0:00:09.21    \nframe=   85 fps=8.7 q=43.0 size=       1KiB time=00:00:02.83 bitrate=   1.8kbits/s speed=0.289x elapsed=0:00:09.80    \nframe=   90 fps=8.6 q=45.0 size=       1KiB time=00:00:03.00 bitrate=   1.7kbits/s speed=0.288x elapsed=0:00:10.41    \nframe=   94 fps=8.6 q=45.0 size=       1KiB time=00:00:03.13 bitrate=   1.6kbits/s speed=0.286x elapsed=0:00:10.97    \nframe=   99 fps=8.6 q=45.0 size=       1KiB time=00:00:03.26 bitrate=   1.6kbits/s speed=0.284x elapsed=0:00:11.49    \nframe=  102 fps=8.5 q=46.0 size=       1KiB time=00:00:03.40 bitrate=   1.5kbits/s speed=0.282x elapsed=0:00:12.04    \nframe=  106 fps=8.4 q=46.0 size=       1KiB time=00:00:03.53 bitrate=   1.4kbits/s speed=0.28x elapsed=0:00:12.61    \nframe=  110 fps=8.4 q=47.0 size=       1KiB time=00:00:03.66 bitrate=   1.4kbits/s speed=0.279x elapsed=0:00:13.15    \nframe=  113 fps=8.2 q=46.0 size=       1KiB time=00:00:03.76 bitrate=   1.3kbits/s speed=0.274x elapsed=0:00:13.76    \nframe=  116 fps=8.1 q=46.0 size=       1KiB time=00:00:03.86 bitrate=   1.3kbits/s speed=0.27x elapsed=0:00:14.33    \nframe=  119 fps=8.0 q=46.0 size=       1KiB time=00:00:03.96 bitrate=   1.3kbits/s speed=0.266x elapsed=0:00:14.88    \nframe=  123 fps=8.0 q=44.0 size=       1KiB time=00:00:04.10 bitrate=   1.2kbits/s speed=0.266x elapsed=0:00:15.43    \nframe=  126 fps=7.9 q=45.0 size=       1KiB time=00:00:04.20 bitrate=   1.2kbits/s speed=0.262x elapsed=0:00:16.00    \nframe=  126 fps=7.6 q=45.0 size=       1KiB time=00:00:04.20 bitrate=   1.2kbits/s speed=0.254x elapsed=0:00:16.56    \nframe=  126 fps=7.4 q=45.0 size=       1KiB time=00:00:04.20 bitrate=   1.2kbits/s speed=0.246x elapsed=0:00:17.08    \nframe=  126 fps=7.1 q=45.0 size=       1KiB time=00:00:04.20 bitrate=   1.2kbits/s speed=0.238x elapsed=0:00:17.62    \nframe=  126 fps=6.9 q=45.0 size=       1KiB time=00:00:04.20 bitrate=   1.2kbits/s speed=0.231x elapsed=0:00:18.18    \nframe=  126 fps=6.7 q=45.0 size=       1KiB time=00:00:04.20 bitrate=   1.2kbits/s speed=0.224x elapsed=0:00:18.77    \nframe=  126 fps=6.5 q=45.0 size=       1KiB time=00:00:04.20 bitrate=   1.2kbits/s speed=0.217x elapsed=0:00:19.35    \nframe=  126 fps=6.3 q=45.0 size=       1KiB time=00:00:04.20 bitrate=   1.2kbits/s speed=0.211x elapsed=0:00:19.90    \n[out#0/webm @ 000001fe87a99240] video:701KiB audio:0KiB subtitle:0KiB other streams:0KiB global headers:0KiB muxing overhead: 0.244709%\nframe=  150 fps=7.5 q=45.0 Lsize=     703KiB time=00:00:05.00 bitrate=1151.6kbits/s speed=0.249x elapsed=0:00:20.04    \n",
  "seconds": 20.353400468826294,
  "probe_out": {}
}